<svg id="Grupo_2" data-name="Grupo 2" xmlns="http://www.w3.org/2000/svg" width="161.548" height="52.211" viewBox="0 0 161.548 52.211">
  <g id="visa" transform="translate(0 12.329)">
    <path id="Caminho_1" data-name="Caminho 1" d="M36.65,26.871h-6.9L34.063.377h6.9ZM23.948.377,17.371,18.6l-.778-3.926L14.274,2.761S13.993.377,11,.377H.128L0,.827a25.857,25.857,0,0,1,7.216,3.03l5.992,23.018h7.186L31.371.377ZM78.206,26.871h6.334L79.017.377H73.472a3.173,3.173,0,0,0-3.185,1.975L60,26.875h7.193l1.437-3.936H77.4ZM70.614,17.5l3.625-9.915L76.278,17.5ZM60.537,6.748l.984-5.691A19.886,19.886,0,0,0,55.316-.1c-3.422,0-11.551,1.495-11.551,8.772,0,6.844,9.543,6.929,9.543,10.527s-8.559,2.952-11.382.683L40.9,25.83a19.353,19.353,0,0,0,7.788,1.495c4.707,0,11.808-2.438,11.808-9.073,0-6.888-9.627-7.531-9.627-10.527s6.716-2.6,9.668-.977Z" transform="translate(0 0.1)" fill="#2566af"/>
    <path id="Caminho_2" data-name="Caminho 2" d="M16.593,28.3l-2.32-11.917S13.993,14,11,14H.128L0,14.446a26.734,26.734,0,0,1,10.239,5.14A20.682,20.682,0,0,1,16.593,28.3Z" transform="translate(0 -13.523)" fill="#e6a540"/>
  </g>
  <g id="mastercard" transform="translate(94.437 0)">
    <path id="Caminho_3" data-name="Caminho 3" d="M165.866,1324.407v.134h.125a.132.132,0,0,0,.067-.017.06.06,0,0,0,.025-.051.057.057,0,0,0-.025-.05.119.119,0,0,0-.067-.017h-.125Zm.126-.095a.234.234,0,0,1,.15.044.144.144,0,0,1,.053.119.137.137,0,0,1-.042.1.206.206,0,0,1-.12.05l.168.191h-.129l-.154-.19h-.05v.19h-.108v-.508h.235Zm-.034.683a.4.4,0,0,0,.165-.033.433.433,0,0,0,.134-.091.425.425,0,0,0,.091-.134.427.427,0,0,0-.225-.557.426.426,0,0,0-.165-.031.443.443,0,0,0-.168.031.427.427,0,0,0-.137.091.433.433,0,0,0-.09.47.4.4,0,0,0,.09.134.425.425,0,0,0,.137.091.415.415,0,0,0,.168.034m0-.973a.562.562,0,0,1,.394.161.542.542,0,0,1,.119.6.567.567,0,0,1-.119.174.6.6,0,0,1-.177.118.549.549,0,0,1-.217.043.558.558,0,0,1-.22-.043.575.575,0,0,1-.178-.118.568.568,0,0,1-.117-.18.54.54,0,0,1,0-.425.535.535,0,0,1,.119-.174.528.528,0,0,1,.178-.117.561.561,0,0,1,.22-.044m-51.376-1.955a1.667,1.667,0,1,1,1.671,1.763,1.653,1.653,0,0,1-1.671-1.763m4.458,0v-2.755h-1.2v.671a2.087,2.087,0,0,0-1.739-.807,2.9,2.9,0,0,0,0,5.783,2.088,2.088,0,0,0,1.739-.807v.669h1.2v-2.755Zm40.46,0a1.668,1.668,0,1,1,1.671,1.763,1.653,1.653,0,0,1-1.671-1.763m4.46,0V1317.1h-1.2v2.882a2.087,2.087,0,0,0-1.739-.807,2.9,2.9,0,0,0,0,5.783,2.088,2.088,0,0,0,1.739-.807v.669h1.2Zm-30.058-1.82a1.367,1.367,0,0,1,1.394,1.336h-2.857a1.418,1.418,0,0,1,1.464-1.336m.024-1.074a2.894,2.894,0,0,0,.08,5.784,3.345,3.345,0,0,0,2.257-.772l-.587-.887a2.626,2.626,0,0,1-1.6.576,1.529,1.529,0,0,1-1.647-1.349h4.089c.012-.149.024-.3.024-.46a2.642,2.642,0,0,0-2.615-2.892m14.457,2.892a1.667,1.667,0,1,1,1.671,1.763,1.653,1.653,0,0,1-1.671-1.763m4.458,0v-2.753h-1.2v.671a2.089,2.089,0,0,0-1.739-.807,2.9,2.9,0,0,0,0,5.783,2.09,2.09,0,0,0,1.739-.807v.669h1.2v-2.755Zm-11.22,0a2.782,2.782,0,0,0,2.938,2.892,2.878,2.878,0,0,0,1.98-.657l-.575-.968a2.421,2.421,0,0,1-1.443.5,1.766,1.766,0,0,1,0-3.526,2.426,2.426,0,0,1,1.443.5l.575-.968a2.882,2.882,0,0,0-1.98-.656,2.782,2.782,0,0,0-2.938,2.892m15.437-2.892a1.626,1.626,0,0,0-1.452.807v-.668h-1.187v5.506h1.2v-3.087c0-.911.392-1.418,1.174-1.418a1.942,1.942,0,0,1,.749.139l.369-1.129a2.543,2.543,0,0,0-.853-.151m-32.1.576a4.118,4.118,0,0,0-2.246-.576c-1.4,0-2.293.669-2.293,1.763,0,.9.669,1.452,1.9,1.625l.566.08c.657.093.967.265.967.576,0,.426-.436.669-1.255.669a2.934,2.934,0,0,1-1.832-.576l-.563.934a3.972,3.972,0,0,0,2.384.715c1.59,0,2.512-.749,2.512-1.8,0-.968-.725-1.474-1.924-1.647l-.564-.082c-.518-.067-.934-.171-.934-.54,0-.4.392-.645,1.048-.645a3.552,3.552,0,0,1,1.717.472l.518-.968Zm15.451-.575a1.622,1.622,0,0,0-1.45.807v-.67h-1.187v5.506h1.2v-3.087c0-.911.392-1.418,1.174-1.418a1.941,1.941,0,0,1,.749.139l.369-1.129a2.543,2.543,0,0,0-.853-.151m-10.218.138h-1.958v-1.671h-1.211v1.671H125.91v1.094h1.117v2.512c0,1.278.5,2.039,1.912,2.039a2.813,2.813,0,0,0,1.5-.426l-.346-1.025a2.217,2.217,0,0,1-1.06.311c-.6,0-.794-.369-.794-.922v-2.488H130.2Zm-17.9,5.508v-3.456a2.05,2.05,0,0,0-2.166-2.189,2.132,2.132,0,0,0-1.936.979,2.021,2.021,0,0,0-1.82-.979,1.822,1.822,0,0,0-1.613.818v-.681h-1.2v5.506h1.208v-3.053a1.289,1.289,0,0,1,1.349-1.464c.8,0,1.2.518,1.2,1.452v3.065h1.211v-3.053a1.3,1.3,0,0,1,1.347-1.464c.818,0,1.208.518,1.208,1.452v3.065Z" transform="translate(-100.085 -1272.91)" fill="#231f20"/>
    <path id="Caminho_4" data-name="Caminho 4" d="M1930.6,978.025v-.805h-.21l-.243.553-.241-.553h-.21v.805h.149v-.607l.227.523h.154l.227-.525v.608h.147Zm-1.33,0v-.667h.268v-.136h-.686v.136h.269v.667h.147Z" transform="translate(-1864.134 -944.433)" fill="#f79410"/>
    <path id="Caminho_5" data-name="Caminho 5" d="M747.857,164.762H729.71V132.15h18.147Z" transform="translate(-705.227 -127.716)" fill="#ff5f00"/>
    <path id="Caminho_6" data-name="Caminho 6" d="M25.633,20.74A20.706,20.706,0,0,1,33.554,4.434a20.74,20.74,0,1,0,0,32.612A20.706,20.706,0,0,1,25.633,20.74" transform="translate(0 0.001)" fill="#eb001b"/>
    <path id="Caminho_7" data-name="Caminho 7" d="M1033.666,20.74a20.739,20.739,0,0,1-33.556,16.306,20.742,20.742,0,0,0,0-32.612,20.739,20.739,0,0,1,33.556,16.306" transform="translate(-966.555 0.001)" fill="#f79e1b"/>
  </g>
</svg>
