<svg xmlns="http://www.w3.org/2000/svg" width="58.428" height="66.428" viewBox="0 0 58.428 66.428">
  <g id="Layer_4_copy" transform="translate(85.78 91.256) rotate(180)">
    <path id="Caminho_8" data-name="Caminho 8" d="M32.5,25.78,83.732,55.359a3.1,3.1,0,0,1,0,5.367L32.5,90.3a3.1,3.1,0,0,1-4.648-2.683V28.464A3.1,3.1,0,0,1,32.5,25.78Z" transform="translate(0 0)"/>
    <path id="Caminho_9" data-name="Caminho 9" d="M83.592,55.34,32.361,25.762a3.108,3.108,0,0,0-.95-.344l49.529,28.6a3.1,3.1,0,0,1,0,5.367L29.708,88.959a3.045,3.045,0,0,1-1.43.4,3.086,3.086,0,0,0,4.083.927L83.592,60.707A3.1,3.1,0,0,0,83.592,55.34Z" transform="translate(0.139 0.019)"/>
    <path id="Caminho_10" data-name="Caminho 10" d="M32.5,25.78,83.732,55.359a3.1,3.1,0,0,1,0,5.367L32.5,90.3a3.1,3.1,0,0,1-4.648-2.683V28.464A3.1,3.1,0,0,1,32.5,25.78Z" transform="translate(0 0)" fill="none" stroke="#000" stroke-miterlimit="10" stroke-width="1"/>
  </g>
</svg>
